<svg xmlns="http://www.w3.org/2000/svg" width="785" height="303" viewBox="0 0 785 303">
  <title>Asset 8</title>
  <g id="Layer_2" data-name="Layer 2">
    <g id="Layer_1-2" data-name="Layer 1">
      <g>
        <rect width="785" height="303" rx="12" fill="red"/>
        <g>
          <path d="M263.41,263.75H237.87V61.42h-7.29L154.53,193.59l-76-132.17h-7V263.75H45.92V39.25H91.39l63.42,114.21L217.39,39.25h46Zm-32.55,0h-24.7V164.41l-47.7,80.26h-7.58l-47.71-80.82v99.9H78.48V74.61l73.24,127.12h5.61L230.86,74.61Z"/>
          <path d="M438.8,263.75H413.27V61.42h-89.8c-7,0-12.07,3.37-12.07,11.22V263.75H285.86V76c0-26.66,14.31-36.76,39.85-36.76H438.8Zm-32.55-89.52H318.42V76.29c0-5.61,2.52-7.85,7.57-7.85h80.26Zm0,89.52H380.71V203.42H344v60.33H318.42v-82.5h87.83ZM380.71,152.06V90.89H344v61.17Z"/>
          <path d="M591.75,263.75H461.26V39.25h25.53V241.58h105Zm0-29.19H493.81V39.25h25.53V212.11h72.41Z"/>
          <path d="M739.08,263.75H608.58V39.25h130.5V61.42h-105V241.58h105Zm0-116.74H641.14V68.44h97.94V90.89H666.67v34h72.41Zm0,87.55H641.14V154h97.94V176.2H666.67v35.91h72.41Z"/>
        </g>
      </g>
    </g>
  </g>
</svg>
