<svg xmlns="http://www.w3.org/2000/svg" width="1079" height="303" viewBox="0 0 1079 303">
  <title>Asset 6</title>
  <g id="Layer_2" data-name="Layer 2">
    <g id="Layer_1-2" data-name="Layer 1">
      <g>
        <rect width="1079" height="303" rx="12" fill="#840000"/>
        <g>
          <path d="M169.91,61.42H71.7V263.75H46.16V39.25H169.91Zm0,97.38H78.71V68.44h91.2V90.89H104.25v45.74h65.66Zm0,29.18H104.25v75.77H78.71V165.81h91.2Z"/>
          <path d="M320.05,263.75H189.56V39.25H320.05V61.42h-105V241.58h105Zm0-116.74H222.11V68.44h97.94V90.89h-72.4v34h72.4Zm0,87.55H222.11V154h97.94V176.2h-72.4v35.91h72.4Z"/>
          <path d="M557.18,263.75H531.64V61.42h-7.3L448.29,193.59,372.24,61.42h-7V263.75H339.69V39.25h45.46l63.42,114.21L511.15,39.25h46Zm-32.56,0H499.93V164.41l-47.71,80.26h-7.58l-47.7-80.82v99.9h-24.7V74.61l73.25,127.12h5.61L524.62,74.61Z"/>
          <path d="M732.57,263.75H707V61.42h-89.8c-7,0-12.06,3.37-12.06,11.22V263.75H579.63V76c0-26.66,14.31-36.76,39.85-36.76H732.57ZM700,174.23H612.18V76.29c0-5.61,2.53-7.85,7.58-7.85H700Zm0,89.52H674.48V203.42H637.72v60.33H612.18v-82.5H700ZM674.48,152.06V90.89H637.72v61.17Z"/>
          <path d="M885.51,263.75H755V39.25h25.54V241.58h105Zm0-29.19H787.57V39.25h25.54V212.11h72.4Z"/>
          <path d="M1032.84,263.75H902.35V39.25h130.49V61.42H927.89V241.58h104.95Zm0-116.74H934.9V68.44h97.94V90.89h-72.4v34h72.4Zm0,87.55H934.9V154h97.94V176.2h-72.4v35.91h72.4Z"/>
        </g>
      </g>
    </g>
  </g>
</svg>
