<svg xmlns="http://www.w3.org/2000/svg" viewBox="0 0 1234.6 303"><defs><style>.cls-1{fill:red;}.cls-2{fill:#fff;}</style></defs><g id="Layer_2" data-name="Layer 2"><g id="Layer_1-2" data-name="Layer 1"><rect class="cls-1" width="1234.6" height="303" rx="12"/><path class="cls-2" d="M175.86,263.9H82.28c-25.57,0-38.77-9.55-38.77-35.69V74.79c0-26.14,13.2-35.69,38.77-35.69h93.58V61.3H82.57c-8.43,0-13.49,4.49-13.49,13.49V228.21c0,9,5.06,13.49,13.49,13.49h93.29Zm0-29.22H85.09c-7.58,0-9-2-9-9.27V77.31c0-7.3,1.41-9,9-9h90.77V90.8H101.67V212.2h74.19Z"/><path class="cls-2" d="M345.58,228.21c0,25-12.93,35.69-38.5,35.69H231.49c-24.16,0-38.78-10.11-38.78-35.69V74.79c0-23.89,13.21-35.69,38.78-35.69h75.59c24.73,0,38.5,10.11,38.5,35.69ZM320,74.79c0-10.12-4.22-13.49-12.93-13.49H231.77c-8.71,0-13.49,3.37-13.49,13.49V228.21c0,10.68,5.06,13.49,13.49,13.49h75.31c9,0,12.93-4.21,12.93-12.64ZM313,226c0,6.46-1.12,8.71-8.71,8.71h-70c-7,0-9-2-9-9.27V77.31c0-7.3,1.41-9,9-9h70c7.59,0,8.71,1.69,8.71,9ZM287.41,212.2V90.8H250.88V212.2Z"/><path class="cls-2" d="M501,227.93,400.65,55.68h-7V263.9H368.06V39.1h50.86l56.48,97.51V39.1H501Zm32.6,36H485.24l-59-102.56V263.9H400.65V69.73L502.38,247.32H508V39.1h25.57Z"/><path class="cls-2" d="M689,227.93,588.64,55.68h-7V263.9H556V39.1H606.9l56.49,97.51V39.1H689Zm32.59,36H673.22l-59-102.56V263.9H588.64V69.73L690.36,247.32H696V39.1h25.57Z"/><path class="cls-2" d="M874.7,263.9H744V39.1H874.7V61.3H769.6V241.7H874.7Zm0-116.9H776.62V68.32H874.7V90.8H802.2v34h72.5Zm0,87.68H776.62V154H874.7v22.2H802.2v36h72.5Z"/><path class="cls-2" d="M1026.71,263.9H933.14c-25.57,0-38.78-9.55-38.78-35.69V74.79c0-26.14,13.21-35.69,38.78-35.69h93.57V61.3H933.42c-8.43,0-13.49,4.49-13.49,13.49V228.21c0,9,5.06,13.49,13.49,13.49h93.29Zm0-29.22H936c-7.59,0-9-2-9-9.27V77.31c0-7.3,1.4-9,9-9h90.76V90.8H952.53V212.2h74.18Z"/><path class="cls-2" d="M1191.1,61.3H1036.82V39.1H1191.1Zm-80.65,202.6h-25.57V90.8h-48.06V68.32h73.63ZM1191.1,90.8H1143V263.9h-25.57V68.32h73.63Z"/></g></g></svg>