<svg xmlns="http://www.w3.org/2000/svg" viewBox="0 0 847.2 303"><defs><style>.cls-1{fill:red;}.cls-2{fill:#fff;}</style></defs><g id="Layer_2" data-name="Layer 2"><g id="Layer_1-2" data-name="Layer 1"><rect class="cls-1" width="847.2" height="303" rx="12"/><path class="cls-2" d="M194.45,228.21c0,24.17-13.77,35.69-38.78,35.69H41.31V39.1H155.67c23.89,0,38.78,9.55,38.78,35.69ZM168.88,74.79c0-10.12-3.37-13.49-13.21-13.49H66.88V241.7h88.79c9.84,0,13.21-3.37,13.21-13.49Zm-7,151.18c0,7.3-1.41,8.71-9,8.71h-79V68.32h79.25c7,0,8.71,1.41,8.71,8.71ZM136.29,212.2V90.8H99.47V212.2Z"/><path class="cls-2" d="M365.86,263.9H340.29V187.75c0-16.86-8.43-23.89-17.14-25v-.56c10.68-2.25,17.14-9,17.14-26.42V72.54c0-7.87-4.78-11.24-11.8-11.24h-86V263.9H216.93V39.1H326.24c25.57,0,39.62,10.11,39.62,36.81v57.61c0,17.14-7.87,25.29-20.79,28.94V163c12.36,1.41,20.79,9.27,20.79,26.42ZM333.27,138.57c0,13.49-10.12,20.52-23,20.52H249.53V68.32H326c5.62,0,7.31,1.41,7.31,7.87Zm0,125.33H307.69V188.31H275.1V263.9H249.53V166.11h60.69c12.09,0,23,7,23,19.95Zm-25.58-127V90.8H275.1v46.09Z"/><path class="cls-2" d="M413.91,263.9H388.34V39.1h25.57Zm32.59,0H420.93V39.1H446.5Z"/><path class="cls-2" d="M601.9,227.93,501.58,55.68h-7V263.9H469V39.1h50.86l56.48,97.51V39.1H601.9Zm32.59,36H586.16l-59-102.56V263.9H501.58V69.73L603.3,247.32h5.62V39.1h25.57Z"/><path class="cls-2" d="M682.54,263.9H657V39.1h25.57ZM773.3,39.1,730.87,153.75H689.56V39.1h25.57v92.45h1.69L748,39.1Zm0,224.8H747.73V183h-32.6V263.9H689.56V160.77h60.7c14.33,0,23,7,23,19.95Zm32.6,0H780.33V178.48c0-14.9-11.24-24.73-27.82-24.73h-14L780.61,39.1H805.9l-36.81,98.35h3.37a33.81,33.81,0,0,1,33.44,34Z"/></g></g></svg>