<svg xmlns="http://www.w3.org/2000/svg" viewBox="0 0 215.49 230.34"><defs><style>.cls-1{fill:#ff1d25;}</style></defs><g id="Layer_2" data-name="Layer 2"><g id="Layer_1-2" data-name="Layer 1"><path id="path30" class="cls-1" d="M106.28,229.67c-.21-.39-1.12-3.16-2-6.16-5.73-19-16.38-38.3-34.21-61.92-6.7-8.87-13-16.73-30.05-37.45-19.74-24-25.39-31.68-31.1-42.28A90,90,0,0,1,.87,60c-1.15-6.06-1.16-16,0-21.12C5.42,17.9,24.06,2.07,46.34.22,71.87-1.89,93.59,11,105,35.06l2.54,5.37,1.92-4.25A58.81,58.81,0,0,1,119.69,20.3C131.48,6.76,145.51.12,162.42.1a52.85,52.85,0,0,1,18.37,2.66,48.66,48.66,0,0,1,23.38,15.31C221,37.63,219,64.27,198.27,96.9c-4.85,7.61-13.59,18.87-25.62,33-13.84,16.26-20.61,24.52-27.54,33.63-16.6,21.84-27.77,41.69-33.91,60.27a57,57,0,0,1-2.18,5.87A1.72,1.72,0,0,1,106.28,229.67Z"/></g></g></svg>