<svg xmlns="http://www.w3.org/2000/svg" viewBox="0 0 793.47 303"><defs><style>.cls-1{fill:red;}.cls-2{fill:#fff;}</style></defs><g id="Layer_2" data-name="Layer 2"><g id="Layer_1-2" data-name="Layer 1"><rect class="cls-1" width="793.47" height="303" rx="12"/><path class="cls-2" d="M259.61,263.9H234V61.3h-7.31L150.58,193.65,74.43,61.3h-7V263.9H41.83V39.1H87.36l63.5,114.37L213.53,39.1h46.08Zm-32.6,0H202.29V164.43l-47.77,80.36h-7.59L99.16,163.86v100H74.43V74.5l73.34,127.3h5.62L227,74.5Z"/><path class="cls-2" d="M435.23,263.9H409.66V61.3H319.74c-7,0-12.08,3.37-12.08,11.24V263.9H282.09v-188c0-26.7,14.33-36.81,39.9-36.81H435.23Zm-32.59-89.64h-88V76.19c0-5.62,2.53-7.87,7.59-7.87h80.37Zm0,89.64H377.07V203.49H340.25V263.9H314.68V181.29h88ZM377.07,152.06V90.8H340.25v61.26Z"/><path class="cls-2" d="M605.24,61.3H451V39.1H605.24ZM524.59,263.9H499V90.8H451V68.32h73.62ZM605.24,90.8h-48V263.9H531.62V68.32h73.62Z"/><path class="cls-2" d="M751.64,263.9H621V39.1H751.64V61.3H646.54V241.7h105.1Zm0-116.9H653.57V68.32h98.07V90.8h-72.5v34h72.5Zm0,87.68H653.57V154h98.07v22.2h-72.5v36h72.5Z"/></g></g></svg>