<svg xmlns="http://www.w3.org/2000/svg" viewBox="0 0 1697.93 303"><defs><style>.cls-1{fill:red;}.cls-2{fill:#fff;}</style></defs><g id="Layer_2" data-name="Layer 2"><g id="Layer_1-2" data-name="Layer 1"><rect class="cls-1" width="1697.93" height="303" rx="12"/><path class="cls-2" d="M206.75,172.29c0,26.7-14.05,36.54-39.62,36.54H112.05V263.9H86.48v-77h82.89c7,0,11.81-3.66,11.81-11.52V72.54c0-7.87-4.78-11.24-11.81-11.24H79.45V263.9H53.88V39.1H167.13c25.57,0,39.62,10.11,39.62,36.81Zm-32.6-.56c0,6.47-1.69,7.87-7.3,7.87H86.48V68.32h80.37c5.61,0,7.3,1.41,7.3,7.87Zm-25.57-14.61V90.8H112.05v66.32Z"/><path class="cls-2" d="M252,263.9H226.41V39.1H252Zm32.59,0H259V39.1h25.57Z"/><path class="cls-2" d="M439.41,263.9H345.84c-25.58,0-38.78-9.55-38.78-35.69V74.79c0-26.14,13.2-35.69,38.78-35.69h93.57V61.3H346.12c-8.43,0-13.49,4.49-13.49,13.49V228.21c0,9,5.06,13.49,13.49,13.49h93.29Zm0-29.22H348.65c-7.59,0-9-2-9-9.27V77.31c0-7.3,1.41-9,9-9h90.76V90.8H365.23V212.2h74.18Z"/><path class="cls-2" d="M481.84,263.9H456.27V39.1h25.57ZM572.6,39.1,530.17,153.75H488.86V39.1h25.57v92.45h1.69L547.31,39.1Zm0,224.8H547V183h-32.6V263.9H488.86V160.77h60.7c14.33,0,23,7,23,19.95Zm32.6,0H579.63V178.48c0-14.9-11.24-24.73-27.82-24.73h-14L579.91,39.1H605.2l-36.81,98.35h3.37a33.81,33.81,0,0,1,33.44,34Z"/><path class="cls-2" d="M844.33,263.9H818.75V61.3H728.83c-7,0-12.08,3.37-12.08,11.24V263.9H691.18v-188c0-26.7,14.33-36.81,39.9-36.81H844.33Zm-32.6-89.64h-88V76.19c0-5.62,2.53-7.87,7.59-7.87h80.37Zm0,89.64H786.16V203.49H749.34V263.9H723.77V181.29h88ZM786.16,152.06V90.8H749.34v61.26Z"/><path class="cls-2" d="M1152,263.9h-25.57V61.3h-7.31L1043,193.65,966.84,61.3h-7V263.9H934.24V39.1h45.52l63.51,114.37L1105.93,39.1H1152Zm-32.6,0h-24.73V164.43l-47.77,80.36h-7.58l-47.78-80.93v100H966.84V74.5l73.34,127.3h5.62l73.62-127.3Z"/><path class="cls-2" d="M1327.64,263.9h-25.57V61.3h-89.92c-7,0-12.09,3.37-12.09,11.24V263.9h-25.57v-188c0-26.7,14.33-36.81,39.91-36.81h113.24Zm-32.59-89.64h-88V76.19c0-5.62,2.53-7.87,7.59-7.87h80.37Zm0,89.64h-25.58V203.49h-36.81V263.9h-25.57V181.29h88Zm-25.58-111.84V90.8h-36.81v61.26Z"/><path class="cls-2" d="M1497.65,61.3H1343.37V39.1h154.28ZM1417,263.9h-25.57V90.8h-48.06V68.32H1417Zm80.65-173.1h-48.06V263.9H1424V68.32h73.63Z"/><path class="cls-2" d="M1644.05,263.9H1513.38V39.1h130.67V61.3H1539V241.7h105.1Zm0-116.9H1546V68.32h98.08V90.8h-72.5v34h72.5Zm0,87.68H1546V154h98.08v22.2h-72.5v36h72.5Z"/></g></g></svg>