<svg xmlns="http://www.w3.org/2000/svg" viewBox="0 0 1623 303"><defs><style>.cls-1{fill:red;}</style></defs><g id="Layer_2" data-name="Layer 2"><g id="Layer_1-2" data-name="Layer 1"><rect class="cls-1" width="1623" height="303" rx="12"/><path d="M199.49,172.29c0,26.7-14.05,36.54-39.62,36.54H104.79V263.9H79.22v-77h82.9c7,0,11.8-3.66,11.8-11.52V72.54c0-7.87-4.77-11.24-11.8-11.24H72.2V263.9H46.63V39.1H159.87c25.57,0,39.62,10.11,39.62,36.81Zm-32.59-.56c0,6.47-1.69,7.87-7.31,7.87H79.22V68.32h80.37c5.62,0,7.31,1.41,7.31,7.87Zm-25.57-14.61V90.8H104.79v66.32Z"/><path d="M244.73,263.9H219.16V39.1h25.57Zm32.6,0H251.76V39.1h25.57Z"/><path d="M432.16,263.9H338.58c-25.57,0-38.78-9.55-38.78-35.69V74.79c0-26.14,13.21-35.69,38.78-35.69h93.58V61.3h-93.3c-8.43,0-13.48,4.49-13.48,13.49V228.21c0,9,5.05,13.49,13.48,13.49h93.3Zm0-29.22H341.39c-7.58,0-9-2-9-9.28V77.31c0-7.3,1.41-9,9-9h90.77V90.8H358V212.2h74.19Z"/><path d="M474.58,263.9H449V39.1h25.57ZM565.35,39.1,522.92,153.75H481.61V39.1h25.57v92.45h1.69L540.06,39.1Zm0,224.8H539.78V183h-32.6V263.9H481.61V160.77h60.7c14.33,0,23,7,23,19.95Zm32.6,0H572.37V178.48c0-14.9-11.24-24.73-27.82-24.73h-14L572.65,39.1H598l-36.82,98.35h3.38a33.81,33.81,0,0,1,33.44,34Z"/><path d="M837.07,263.9H811.5V61.3H721.58c-7,0-12.09,3.37-12.09,11.24V263.9H683.92v-188c0-26.7,14.33-36.81,39.91-36.81H837.07Zm-32.6-89.64h-88V76.19c0-5.62,2.53-7.87,7.59-7.87h80.36Zm0,89.64H778.9V203.49H742.09V263.9H716.52V181.29h88ZM778.9,152.06V90.8H742.09v61.26Z"/><path d="M1059.34,263.9H965.76c-25.57,0-38.77-9.55-38.77-35.69V74.79c0-26.14,13.2-35.69,38.77-35.69h93.58V61.3H966c-8.42,0-13.48,4.49-13.48,13.49V228.21c0,9,5.06,13.49,13.48,13.49h93.3Zm0-29.22H968.57c-7.58,0-9-2-9-9.28V77.31c0-7.3,1.41-9,9-9h90.77V90.8H985.15V212.2h74.19Z"/><path d="M1229.34,263.9h-25.57V61.3h-89.92c-7,0-12.08,3.37-12.08,11.24V263.9h-25.58v-188c0-26.7,14.34-36.81,39.91-36.81h113.24Zm-32.59-89.64h-88V76.19c0-5.62,2.53-7.87,7.59-7.87h80.37Zm0,89.64h-25.58V203.49h-36.81V263.9h-25.57V181.29h88Zm-25.58-111.84V90.8h-36.81v61.26Z"/><path d="M1400.75,263.9h-25.57V187.75c0-16.86-8.43-23.89-17.14-25v-.56c10.68-2.25,17.14-9,17.14-26.42V72.54c0-7.87-4.78-11.24-11.8-11.24h-86V263.9h-25.57V39.1h109.31c25.57,0,39.62,10.11,39.62,36.81v57.61c0,17.14-7.87,25.29-20.79,28.94V163c12.36,1.41,20.79,9.27,20.79,26.42Zm-32.6-125.33c0,13.49-10.11,20.52-23,20.52h-60.69V68.32h76.43c5.62,0,7.3,1.41,7.3,7.87Zm0,125.33h-25.57V188.31H1310V263.9h-25.57V166.11h60.69c12.09,0,23,7,23,19.95Zm-25.57-127V90.8H1310v46.09Z"/><path d="M1576.37,228.21c0,24.17-13.77,35.69-38.78,35.69H1423.22V39.1h114.37c23.89,0,38.78,9.55,38.78,35.69ZM1550.8,74.79c0-10.12-3.37-13.49-13.21-13.49H1448.8V241.7h88.79c9.84,0,13.21-3.37,13.21-13.49Zm-7,151.18c0,7.3-1.41,8.71-9,8.71h-79V68.32h79.24c7,0,8.72,1.41,8.72,8.71Zm-25.57-13.77V90.8h-36.82V212.2Z"/></g></g></svg>