<svg xmlns="http://www.w3.org/2000/svg" width="743" height="303" viewBox="0 0 743 303">
  <title>playBright</title>
  <g id="Layer_2" data-name="Layer 2">
    <g id="Layer_1-2" data-name="Layer 1">
      <g>
        <rect width="743" height="303" rx="12" fill="red"/>
        <g>
          <path d="M202.14,172.27c0,26.66-14,36.48-39.57,36.48h-55v55H82V186.86h82.79c7,0,11.78-3.65,11.78-11.51V72.65c0-7.86-4.77-11.23-11.78-11.23H75V263.75H49.48V39.25H162.57c25.54,0,39.57,10.1,39.57,36.76Zm-32.55-.56c0,6.45-1.69,7.85-7.3,7.85H82V68.44h80.26c5.61,0,7.3,1.4,7.3,7.85Zm-25.54-14.6V90.89H107.57v66.22Z" fill="#f2f2f2"/>
          <path d="M352.28,263.75H221.79V39.25h25.53V241.58h105Zm0-29.19H254.34V39.25h25.54V212.11h72.4Z" fill="#f2f2f2"/>
          <path d="M522.06,263.75H496.52V61.42h-89.8c-7,0-12.07,3.37-12.07,11.23v191.1H369.12V76c0-26.66,14.31-36.76,39.84-36.76h113.1ZM489.5,174.23H401.67V76.29c0-5.61,2.52-7.85,7.57-7.85H489.5Zm0,89.52H464V203.42H427.2v60.33H401.67v-82.5H489.5ZM464,152.06V90.89H427.2v61.17Z" fill="#f2f2f2"/>
          <path d="M613.82,263.75H588.29V182.93h-8.14c-25.54,0-39.57-9.82-39.57-36.48V39.25h25.54V149.54c0,7.85,5,11.22,12.06,11.22h35.64ZM661,145.89c0,6.45-2,7.86-7.58,7.86H580.71c-5.61,0-7.58-1.41-7.58-7.86V39.25h25.54V131.3h36.76V39.25H661Zm32.55.56c0,26.66-14.31,36.48-39.85,36.48h-7.29v80.82H620.84v-103h35.08c7,0,12.06-3.37,12.06-11.22V39.25h25.54Z" fill="#f2f2f2"/>
        </g>
      </g>
    </g>
  </g>
</svg>
