<svg xmlns="http://www.w3.org/2000/svg" width="738" height="303" viewBox="0 0 738 303">
  <title>PlayNormal</title>
  <g id="Layer_2" data-name="Layer 2">
    <g id="Layer_1-2" data-name="Layer 1">
      <g>
        <rect width="738" height="303" rx="12" fill="red"/>
        <g>
          <path d="M199.64,172.27c0,26.66-14,36.48-39.57,36.48h-55v55H79.53V186.86h82.79c7,0,11.78-3.65,11.78-11.51V72.64c0-7.85-4.77-11.22-11.78-11.22H72.52V263.75H47V39.25H160.07c25.54,0,39.57,10.1,39.57,36.76Zm-32.55-.57c0,6.46-1.69,7.86-7.3,7.86H79.53V68.44h80.26c5.61,0,7.3,1.4,7.3,7.85Zm-25.54-14.59V90.89H105.07v66.22Z"/>
          <path d="M349.78,263.75H219.29V39.25h25.53V241.58h105Zm0-29.19H251.84V39.25h25.54V212.11h72.4Z"/>
          <path d="M519.56,263.75H494V61.42h-89.8c-7,0-12.07,3.37-12.07,11.22V263.75H366.62V76c0-26.66,14.31-36.76,39.84-36.76h113.1ZM487,174.23H399.17V76.29c0-5.61,2.52-7.85,7.57-7.85H487Zm0,89.52H461.47V203.42H424.7v60.33H399.17v-82.5H487ZM461.47,152.06V90.89H424.7v61.17Z"/>
          <path d="M611.32,263.75H585.79V182.93h-8.14c-25.54,0-39.57-9.82-39.57-36.48V39.25h25.54V149.54c0,7.85,5,11.22,12.06,11.22h35.64Zm47.15-117.86c0,6.45-2,7.85-7.58,7.85H578.21c-5.61,0-7.58-1.4-7.58-7.85V39.25h25.54V131.3h36.76V39.25h25.54Zm32.55.56c0,26.66-14.31,36.48-39.85,36.48h-7.29v80.82H618.34v-103h35.08c7,0,12.06-3.37,12.06-11.22V39.25H691Z"/>
        </g>
      </g>
    </g>
  </g>
</svg>
