<svg xmlns="http://www.w3.org/2000/svg" viewBox="0 0 1267.14 1774"><defs><style>.cls-1{fill:#ccc;}.cls-2{fill:#ff1d25;}</style></defs><g id="Layer_2" data-name="Layer 2"><g id="Layer_1-2" data-name="Layer 1"><rect class="cls-1" width="1267.14" height="1774" rx="100"/><path class="cls-2" d="M515.57,717.93a217.46,217.46,0,0,0-28.4,17.48L466.74,708c-4.44-6.14-17.11-1-27.74,8.07l-.17-.18c11.92-12.08,18.62-20.23,14-26.62l-17-22.77c-2.06-2.83-10.16,1-20.1,9.36-40.44,34.21-72.87,80.3-91.73,138.27l85.37,29.76A256,256,0,0,0,400,883.1l-98.87-15.66c13.5-85.26,52.38-150.72,104.84-196.38,37.43-31.73,64.6-37.48,69.65-27.32l12.24,22.73c3.62,6.9-6,15.36-21.78,28.07l.14.21c16.48-10.45,30-13,33.52-6.21Zm-71.19-20.69c3.77,4.83-7.08,17-21.32,32.17a260.1,260.1,0,0,0-53.65,87l-37.62-15.11c18.52-49.31,47.3-89.33,82.47-120,7.79-6.74,10.69-8,12.48-5.81ZM479.82,741A210.17,210.17,0,0,0,455,764.24Q442.51,752.77,430,741.3a243.23,243.23,0,0,0-30.29,41.52l29,17.57a223.72,223.72,0,0,0-15.8,33.49l-40.54-16.29a257.05,257.05,0,0,1,53-86c13.25-14.26,28.91-22.34,32.45-17.76Zm-66.89-15.32-15.28-14a283.23,283.23,0,0,0-35.35,48.46L380,770.87A263.8,263.8,0,0,1,412.93,725.69Z"/><path class="cls-2" d="M742.19,705.49c-5.79,10-22.42,4.65-54.09-4.52A242.07,242.07,0,0,0,591,694.38c-30.86,4.33-50,7.86-54.43-3l-24.52-64.06c-4-9.34,16.92-25.09,64.58-32.08a349.4,349.4,0,0,1,140,9.51c44.73,12.89,64.71,31.23,59,40.65ZM734,627c1.62-4.16-5-8.42-20.19-12.73A338.83,338.83,0,0,0,578.57,605c-15.67,2.15-23.79,5.65-22.78,10q7.46,33.39,14.9,66.78c1.08,4.68,8,4.34,19.29,2.81a252.67,252.67,0,0,1,100.94,6.92c11.68,3.32,17.29,3.58,18.67,0ZM700.8,687.06c-.93,2.79-2.67,3.1-12.7.39A256.25,256.25,0,0,0,593,681c-9.55,1.2-12.34.94-12.94-2.31q-5.88-32.48-11.78-65c-.58-3.14,1.74-4.53,15.26-6.25a335.62,335.62,0,0,1,124.56,8.45c13.16,3.55,14.78,5.1,13.76,8.13Q711.33,655.57,700.8,687.06Zm-33.53-14.29,9.48-53.28a325.77,325.77,0,0,0-63.23-4.22q.88,27,1.78,54A267.62,267.62,0,0,1,667.27,672.77Z"/><path class="cls-2" d="M936.15,869c-11.78-74.4-43.48-133.24-86.77-176.54q-32.19,32.2-64.37,64.43A212,212,0,0,0,759.29,735q30-40.59,60.05-81.17c63.35,45.76,111.26,117,126.57,213.63Zm-42.88,6.79c-9.45-59.6-33.7-107.64-67-144.11l29.9-27.57c38.24,41.86,66.08,97,76.91,165.38L923.17,871c-7.55-47.67-23.63-88.68-45.86-123l-17.06,11.46C881,791.51,896,829.77,903,874.23Zm-12.86,2c-6.47-40.86-20.26-76-39.32-105.47l-28.26,19a210.83,210.83,0,0,0-21.32-27.64l32.41-29.87c32.94,36.05,56.92,83.54,66.26,142.46Z"/><path class="cls-2" d="M750.93,1056.07a217.46,217.46,0,0,0,28.4-17.48L799.76,1066c4.44,6.14,17.11,1,27.74-8.07l.17.18c-11.92,12.08-18.62,20.23-14,26.62l17,22.77c2.06,2.83,10.16-1,20.1-9.36,40.44-34.21,72.87-80.3,91.73-138.27l-85.37-29.76a256,256,0,0,0,9.35-39.23l98.87,15.66c-13.51,85.26-52.38,150.72-104.84,196.38-37.43,31.73-64.61,37.48-69.65,27.32l-12.24-22.73c-3.62-6.9,6-15.36,21.78-28.07l-.14-.21c-16.48,10.45-30,13-33.52,6.21Zm71.19,20.69c-3.77-4.83,7.08-17,21.32-32.17a260.1,260.1,0,0,0,53.65-87l37.62,15.11c-18.52,49.31-47.3,89.33-82.47,120-7.8,6.74-10.69,8-12.48,5.81ZM786.68,1033a210.17,210.17,0,0,0,24.79-23.23q12.53,11.47,25.06,22.94a243.23,243.23,0,0,0,30.29-41.52l-29-17.57a222.78,222.78,0,0,0,15.81-33.49l40.53,16.29a257,257,0,0,1-53,86c-13.26,14.26-28.91,22.34-32.45,17.76Zm66.89,15.32,15.28,14a283.23,283.23,0,0,0,35.35-48.46l-17.67-10.71A263.8,263.8,0,0,1,853.57,1048.31Z"/><path class="cls-2" d="M524.31,1068.51c5.79-10,22.42-4.65,54.09,4.52a242.07,242.07,0,0,0,97.08,6.59c30.86-4.33,50-7.86,54.43,3l24.52,64.06c4,9.34-16.93,25.09-64.58,32.08a349.39,349.39,0,0,1-140-9.51c-44.73-12.89-64.71-31.23-59-40.65Zm8.15,78.51c-1.62,4.16,5,8.42,20.19,12.73A338.83,338.83,0,0,0,687.93,1169c15.67-2.15,23.79-5.65,22.78-10q-7.46-33.39-14.9-66.78c-1.08-4.68-8-4.34-19.29-2.81a252.67,252.67,0,0,1-100.94-6.92c-11.68-3.32-17.29-3.58-18.67,0Zm33.24-60.08c.93-2.79,2.67-3.1,12.7-.39a256.24,256.24,0,0,0,95.12,6.45c9.55-1.2,12.34-.94,12.94,2.31q5.88,32.48,11.78,65c.58,3.14-1.74,4.53-15.26,6.25a335.62,335.62,0,0,1-124.56-8.45c-13.16-3.55-14.78-5.1-13.76-8.13Q555.17,1118.43,565.7,1086.94Zm33.53,14.29-9.48,53.28a325.72,325.72,0,0,0,63.23,4.22q-.88-27-1.78-54A267.62,267.62,0,0,1,599.23,1101.23Z"/><path class="cls-2" d="M330.35,905c11.78,74.4,43.48,133.24,86.77,176.54q32.19-32.21,64.37-64.43a212,212,0,0,0,25.72,21.9q-30,40.59-60,81.17c-63.35-45.76-111.26-117-126.57-213.63Zm42.88-6.79c9.44,59.6,33.7,107.64,67,144.11l-29.9,27.57c-38.24-41.86-66.08-97-76.91-165.38l9.89-1.56c7.55,47.67,23.63,88.68,45.86,123l17.06-11.46c-20.73-32-35.74-70.3-42.78-114.76Zm12.86-2c6.47,40.86,20.26,76,39.32,105.47l28.26-19A210.83,210.83,0,0,0,475,1010.32l-32.41,29.87c-32.95-36.05-56.92-83.54-66.26-142.46Z"/></g></g></svg>