<svg xmlns="http://www.w3.org/2000/svg" viewBox="0 0 902.54 303"><defs><style>.cls-1{fill:#840000;}</style></defs><g id="Layer_2" data-name="Layer 2"><g id="Layer_1-2" data-name="Layer 1"><rect class="cls-1" width="902.54" height="303" rx="12"/><path d="M189.1,263.9H163.53V187.75c0-16.86-8.43-23.89-17.14-25v-.56c10.68-2.25,17.14-9,17.14-26.42V72.54c0-7.87-4.78-11.24-11.8-11.24h-86V263.9H40.17V39.1H149.48c25.57,0,39.62,10.11,39.62,36.81v57.61c0,17.14-7.87,25.29-20.79,28.94V163c12.36,1.41,20.79,9.27,20.79,26.42ZM156.5,138.57c0,13.49-10.11,20.52-23,20.52H72.76V68.32H149.2c5.62,0,7.3,1.41,7.3,7.87Zm0,125.33H130.93V188.31H98.34V263.9H72.76V166.11h60.7c12.08,0,23,7,23,19.95Zm-25.57-127V90.8H98.34v46.09Z"/><path d="M342.24,263.9H211.57V39.1H342.24V61.3H237.15V241.7H342.24Zm0-116.9H244.17V68.32h98.07V90.8h-72.5v34h72.5Zm0,87.68H244.17V154h98.07v22.2h-72.5v36h72.5Z"/><path d="M515.05,263.9H489.48V61.3H399.56c-7,0-12.08,3.37-12.08,11.24V263.9H361.91v-188c0-26.7,14.33-36.81,39.9-36.81H515.05Zm-32.59-89.64h-88V76.19c0-5.62,2.53-7.87,7.59-7.87h80.37Zm0,89.64H456.89V203.49H420.07V263.9H394.5V181.29h88ZM456.89,152.06V90.8H420.07v61.26Z"/><path d="M690.68,228.21c0,24.17-13.77,35.69-38.78,35.69H537.53V39.1H651.9c23.89,0,38.78,9.55,38.78,35.69ZM665.11,74.79c0-10.12-3.37-13.49-13.21-13.49H563.1V241.7h88.8c9.84,0,13.21-3.37,13.21-13.49Zm-7,151.18c0,7.3-1.4,8.71-9,8.71h-79V68.32h79.24c7,0,8.71,1.41,8.71,8.71ZM632.51,212.2V90.8H595.7V212.2Z"/><path d="M782.56,263.9H757V183h-8.15c-25.57,0-39.62-9.83-39.62-36.53V39.1h25.57V149.53c0,7.87,5.06,11.24,12.09,11.24h35.68Zm47.21-118c0,6.46-2,7.87-7.58,7.87H749.41c-5.62,0-7.59-1.41-7.59-7.87V39.1h25.57v92.17H804.2V39.1h25.57Zm32.6.56c0,26.7-14.33,36.53-39.9,36.53h-7.31V263.9H789.59V160.77h35.13c7,0,12.08-3.37,12.08-11.24V39.1h25.57Z"/></g></g></svg>