<svg xmlns="http://www.w3.org/2000/svg" width="774.23" height="271.6" viewBox="0 0 774.23 271.6">
  <title>Title</title>
  <g id="Layer_2" data-name="Layer 2">
    <g id="Layer_1-2" data-name="Layer 1">
      <g>
        <path d="M282.9,91.61C275.65,94,272,95.24,264.84,97.84c-2.7-7.46-4-11.19-6.74-18.64-4.22,1.52-6.32,2.3-10.51,3.89,2.82,7.42,4.24,11.12,7.06,18.53-7.16,2.73-10.73,4.15-17.83,7.09q-11.28-27.21-22.55-54.4Q232.44,46.77,251,40.25c8.69-3,14.32-2.06,16.51,4.59l4.73,14.35c1.38,4.2-.53,7.07-4.4,9.48l.05.14c4.25-1,7.55.11,8.93,4.31C279.25,80.52,280.47,84.21,282.9,91.61Zm-29.37-25c-1.65-4.57-2.48-6.86-4.14-11.43-4.37,1.58-6.55,2.38-10.9,4,1.74,4.55,2.6,6.82,4.33,11.37C247.09,68.93,249.24,68.13,253.53,66.58Z" transform="translate(-100.31)" fill="#ed1c24"/>
        <path d="M308.29,83.83C301,85.91,297.32,87,290,89.31L272.28,33.16c7.93-2.51,11.91-3.7,19.89-6Q300.23,55.51,308.29,83.83Z" transform="translate(-100.31)" fill="#ed1c24"/>
        <path d="M364.25,70.55c-7.45,1.43-11.16,2.19-18.57,3.83l-9.84-44.32c-5,1.12-7.56,1.7-12.58,2.91L333.91,77.1c-7.38,1.78-11.07,2.73-18.41,4.72Q307.76,53.41,300,25q19.49-5.3,39.26-9.49c8.94-1.89,14.37-.19,15.69,6.69Z" transform="translate(-100.31)" fill="#ed1c24"/>
        <path d="M418.21,62.54c-11.39,1.32-22.69,2.82-34,4.52-8.16,1.3-13-.33-14.24-7l-7.08-39.31C361.61,13.85,366,10.33,375,8.89c10-1.61,20-3,30-4.13.63,5.36.94,8,1.56,13.4-9.24,1.1-13.85,1.73-23.06,3.13l4.73,31.49c3.75-.56,5.62-.83,9.38-1.34l-2.3-16.94c7.85-1.06,11.78-1.54,19.65-2.37Z" transform="translate(-100.31)" fill="#ed1c24"/>
        <path d="M496.52,49.65c-.09,6.56-4.34,9.19-12.69,9.24-9.86,0-14.79.17-24.65.6-7.87.34-12.7-1.92-13.12-8.61l-2.51-40.16c-.39-6.25,4-9.67,13.09-10.06C467.38.19,472.75.06,483.5,0c8.7,0,13.66,2.71,13.57,9.41ZM477.3,45.47l-.48-31.84c-5.14.08-7.7.14-12.84.31q.54,15.92,1.07,31.82C470,45.6,472.4,45.54,477.3,45.47Z" transform="translate(-100.31)" fill="#ed1c24"/>
        <path d="M545.81,41.49c-8.81-.76-13.22-1.07-22-1.54-.43,7.95-.64,11.92-1.07,19.87-7.55-.41-11.32-.55-18.87-.74q.74-29.43,1.46-58.87c14.67.49,29.27,1.3,43.91,2.44-.47,5.38-.7,8.06-1.17,13.44-9.15-.79-13.73-1.11-22.89-1.6l-.65,12.06c9,.49,13.5.8,22.49,1.58C546.51,33.48,546.28,36.15,545.81,41.49Z" transform="translate(-100.31)" fill="#ed1c24"/>
        <path d="M616.18,51.33c-8.72-1.69-13.08-2.46-21.83-3.86-1.27,7.86-1.9,11.79-3.16,19.65-7.48-1.2-11.22-1.74-18.72-2.72Q576.28,35.19,580.11,6c14.57,2,29,4.37,43.51,7.05-1,5.29-1.55,7.94-2.58,13.24-9-1.75-13.57-2.56-22.65-4-.77,4.77-1.15,7.16-1.92,11.93,8.93,1.43,13.38,2.22,22.27,3.94C617.71,43.43,617.2,46.06,616.18,51.33Z" transform="translate(-100.31)" fill="#ed1c24"/>
        <path d="M637.32,76.21c-7.39-1.74-11.1-2.55-18.53-4.07q5.9-28.85,11.81-57.69c8.1,1.65,12.14,2.54,20.2,4.43Q644.06,47.55,637.32,76.21Z" transform="translate(-100.31)" fill="#ed1c24"/>
        <path d="M691.57,91.44c-7.25-2.38-10.9-3.52-18.2-5.68l5.63-19c-4.28-1.26-6.42-1.88-10.71-3.07L663,82.78c-7.33-2-11-3-18.39-4.82l14.13-57.17q19,4.68,37.66,10.39c8.77,2.69,12.73,6.82,10.55,13.47C705,50.4,704.09,53.27,702.21,59c-1.38,4.2-4.62,5.38-9.15,5l0,.14c4,1.73,6,4.56,4.63,8.77C695.21,80.34,694,84,691.57,91.44Zm-8.76-37.55,3.45-11.66c-4.44-1.32-6.66-1.95-11.11-3.19-1.31,4.68-2,7-3.27,11.71C676.26,52,678.45,52.6,682.81,53.89Z" transform="translate(-100.31)" fill="#ed1c24"/>
        <path d="M739,109.07c-13.35-5.42-26.76-10.49-40.35-15.26l19-55.74c14.83,5.08,29.53,10.57,44,16.63l-5.18,12.45c-9.5-4-14.28-5.84-23.89-9.43l-3.15,8.42c9.49,3.54,14.2,5.41,23.58,9.31l-5.15,12.39c-9.2-3.83-13.83-5.66-23.13-9.13-1.33,3.56-2,5.34-3.33,8.9,9.17,3.43,13.74,5.23,22.8,9Z" transform="translate(-100.31)" fill="#ed1c24"/>
        <path d="M164.76,237.07c3.8,5.61,2,9.79-4.12,14.15l-2.1,1.49,4.28,6c-5.44,3.89-8.14,5.88-13.49,10l-4.46-5.87-2.25,1.73c-6,4.63-10.59,5.12-14.83-.17q-12.58-15.71-25.16-31.4c-4.24-5.29-2.55-10,4.11-15.12,7.87-6.05,11.85-9,19.89-14.69,6.81-4.82,11.75-5,15.55.61Zm-16.68,6.55-18.65-25.8c-3.81,2.75-5.71,4.15-9.48,7l19.14,25.44C142.67,247.56,144.46,246.24,148.08,243.62Z" transform="translate(-100.31)" fill="#ed1c24"/>
        <path d="M209,209.55c3.38,6.12,1.05,10.33-5.4,14.06-7.41,4.31-11.09,6.54-18.38,11.15-6.33,4-11.12,4.12-15-1.73l-27.18-41.14c6.27-4.14,9.42-6.16,15.78-10.1l23.88,38.62c3.74-2.32,5.63-3.46,9.41-5.71L169,175.64c6.41-3.8,9.64-5.65,16.14-9.25Z" transform="translate(-100.31)" fill="#ed1c24"/>
        <path d="M259,195.42c-6.09,2.69-9.12,4.08-15.15,7L237,188.07c-3.94,1.88-5.91,2.84-9.82,4.8L234.31,207c-6,3-9,4.54-14.88,7.72L196.12,171.4c-3.32-6.17-.63-10.67,6.64-14.4,8.35-4.27,12.55-6.32,21-10.26,7.37-3.44,12.54-2.78,15.37,3.63Q249.07,172.89,259,195.42ZM231.45,176l-7-14.64c-4.2,2-6.3,3-10.47,5.12l7.25,14.5C225.32,178.9,227.36,177.9,231.45,176Z" transform="translate(-100.31)" fill="#ed1c24"/>
        <path d="M304.73,177.57c-6.25,2.14-9.37,3.25-15.57,5.57l-7-18.57c-3.65,1.36-5.46,2.06-9.09,3.49l7.25,18.45c-6.17,2.43-9.25,3.69-15.36,6.3l-23.15-54.15c10.64-4.43,21.28-8.63,32.08-12.68,7.58-2.75,12.64-1.63,14.9,5l4.88,14.3c1.42,4.19-.12,7-3.42,9.23l0,.13c3.72-.84,6.68.34,8.11,4.53ZM277.51,152c-1.7-4.55-2.55-6.83-4.26-11.39-3.81,1.43-5.7,2.15-9.49,3.64l4.45,11.32C271.92,154.11,273.78,153.4,277.51,152Z" transform="translate(-100.31)" fill="#ed1c24"/>
        <path d="M352.61,163.58c-6.38,1.56-9.56,2.39-15.91,4.14l-4.22-15.27c-4.15,1.14-6.22,1.74-10.35,3,1.8,6.08,2.7,9.11,4.51,15.19-6.32,1.87-9.47,2.86-15.75,4.91l-15.36-46.78c-2.18-6.65,1.18-10.58,8.87-12.94,8.82-2.7,13.25-4,22.15-6.33,7.75-2.06,12.66-.5,14.33,6.3Zm-23.52-24-4.32-15.63c-4.42,1.22-6.63,1.85-11,3.15,1.85,6.22,2.77,9.33,4.61,15.55C322.63,141.35,324.78,140.73,329.09,139.55Z" transform="translate(-100.31)" fill="#ed1c24"/>
        <path d="M401.32,153.9c-6.48,1-9.71,1.53-16.15,2.72Q381.06,134.28,377,112c-4.43.82-6.64,1.24-11.06,2.14l9,44.49c-6.43,1.3-9.64,2-16,3.49l-13.38-57.35q17.21-4,34.62-7c7.87-1.36,12.61.63,13.68,7.55Z" transform="translate(-100.31)" fill="#ed1c24"/>
        <path d="M446,103.33c-5.85.39-8.77.63-14.61,1.16l4.17,45.21c-6.51.6-9.76,1-16.25,1.73q-2.75-22.53-5.48-45.07c-5.82.71-8.73,1.1-14.54,1.94-.78-5.34-1.17-8-1.94-13.35,15.84-2.26,31.76-4,47.73-5.08C445.4,95.25,445.58,97.94,446,103.33Z" transform="translate(-100.31)" fill="#ed1c24"/>
        <path d="M469.86,147.59c-6.53.2-9.79.35-16.31.74q-1.77-29.39-3.53-58.78c7.2-.43,10.8-.59,18-.82Z" transform="translate(-100.31)" fill="#ed1c24"/>
        <path d="M519.32,148.21c-6.53-.37-9.79-.5-16.32-.68q.62-22.69,1.24-45.38c-4.49-.13-6.73-.17-11.22-.21l-.41,45.4c-6.53-.06-9.79,0-16.33.09q-.58-29.45-1.16-58.88,17.58-.35,35.18.29c8,.29,12.18,3.22,11.78,10.21Z" transform="translate(-100.31)" fill="#ed1c24"/>
        <path d="M562.36,152.27q-18.24-2.43-36.63-3.67,2-29.37,4-58.75Q550,91.22,570.15,93.9c-.71,5.35-1.07,8-1.78,13.37-8.78-1.17-13.18-1.67-22-2.52-.35,3.58-.52,5.37-.87,9,8.68.84,13,1.33,21.66,2.48-.71,5.32-1.07,8-1.78,13.3-8.45-1.12-12.69-1.61-21.17-2.43-.37,3.79-.55,5.68-.91,9.47,8.34.8,12.51,1.28,20.83,2.38Z" transform="translate(-100.31)" fill="#ed1c24"/>
        <path d="M622.93,163.71q-17.94-4.41-36.15-7.64,5.18-29,10.33-58,20.08,3.57,39.91,8.44l-3.23,13.1c-8.63-2.12-13-3.11-21.66-4.91l-1.83,8.8c8.56,1.78,12.83,2.75,21.34,4.84-1.28,5.21-1.93,7.82-3.21,13-8.32-2-12.49-3-20.86-4.74-.78,3.73-1.17,5.59-1.94,9.31,8.24,1.71,12.34,2.64,20.53,4.66C624.87,155.86,624.22,158.48,622.93,163.71Z" transform="translate(-100.31)" fill="#ed1c24"/>
        <path d="M673.11,168.73c-2,6-6.71,7.49-13.5,5.33-10.37-3.19-20.71-6.17-31.19-9q7.33-28.51,14.66-57,17.35,4.45,34.44,9.9c7.16,2.28,10.76,6.26,8.57,12.68Q679.61,149.69,673.11,168.73Zm-14.72-9.19,9.39-30.42c-4.36-1.35-6.55-2-10.93-3.26L648,156.45C652.19,157.65,654.26,158.27,658.39,159.54Z" transform="translate(-100.31)" fill="#ed1c24"/>
        <path d="M691.78,185.4c-6.18-2.39-9.29-3.54-15.53-5.75q9.82-27.77,19.64-55.52c6.89,2.43,10.32,3.7,17.14,6.34Z" transform="translate(-100.31)" fill="#ed1c24"/>
        <path d="M756.52,164.21c-5.38-2.64-8.09-3.92-13.52-6.42L724,199c-6.06-2.79-9.11-4.14-15.23-6.74q8.88-20.9,17.75-41.79c-5.48-2.33-8.24-3.46-13.77-5.65l5-12.54c15.13,6,30.09,12.57,44.7,19.78C760.08,157,758.89,159.37,756.52,164.21Z" transform="translate(-100.31)" fill="#ed1c24"/>
        <path d="M755.57,214.76c-5.92-3.18-8.89-4.72-14.88-7.72L767,154.37c6.61,3.31,9.9,5,16.43,8.53Z" transform="translate(-100.31)" fill="#ed1c24"/>
        <path d="M804.59,233.28c-3.61,5.47-8.27,5.62-14.6,1.61-7.48-4.73-11.26-7-18.88-11.44-6.09-3.53-8.49-7.78-5.25-13.65l19.47-35.22c3-5.48,8.17-6.22,15.29-2.1,8.41,4.88,12.58,7.41,20.84,12.64,6.68,4.23,9,9,5.31,14.58Zm-12.32-12.87L809,193.33c-4-2.45-5.94-3.66-9.93-6L782.86,214.7C786.64,217,788.53,218.09,792.27,220.41Z" transform="translate(-100.31)" fill="#ed1c24"/>
        <path d="M841.41,271.6c-5.4-4.32-8.12-6.44-13.61-10.57q13.65-18.13,27.29-36.28c-3.77-2.84-5.66-4.24-9.48-7Q832.32,236.15,819,254.55c-5.55-4-8.35-6-14-9.8l33-48.75q15.25,10.37,29.9,21.6c6.66,5.11,8.6,10.11,4.22,15.58Z" transform="translate(-100.31)" fill="#ed1c24"/>
      </g>
    </g>
  </g>
</svg>
